<?xml version="1.0" standalone="no"?>
<!DOCTYPE svg PUBLIC "-//W3C//DTD SVG 20010904//EN"
 "http://www.w3.org/TR/2001/REC-SVG-20010904/DTD/svg10.dtd">
<svg version="1.0" xmlns="http://www.w3.org/2000/svg"
 width="500.000000pt" height="500.000000pt" viewBox="0 0 500.000000 500.000000"
 preserveAspectRatio="xMidYMid meet">

<g transform="translate(0.000000,500.000000) scale(0.100000,-0.100000)"
fill="#000000" stroke="none">
<path d="M2300 3829 c-40 -16 -60 -49 -60 -101 0 -39 5 -50 28 -70 16 -13 55
-30 86 -37 35 -8 56 -17 53 -24 -7 -21 -39 -20 -68 2 -23 17 -37 20 -69 15
-50 -8 -55 -15 -35 -54 18 -35 82 -69 131 -70 56 0 122 29 144 65 25 41 25 71
0 112 -15 25 -31 36 -77 48 -90 25 -88 24 -74 38 9 9 19 7 45 -7 29 -15 39
-16 70 -6 42 14 45 29 12 67 -21 24 -31 28 -92 30 -38 2 -80 -2 -94 -8z"/>
<path d="M2696 3829 c-2 -8 -7 -84 -11 -171 l-6 -156 77 -7 c92 -9 146 4 191
47 78 75 58 224 -35 272 -40 21 -211 32 -216 15z m151 -87 c51 -32 28 -162
-29 -162 -16 0 -18 9 -18 85 0 74 2 85 18 85 9 0 22 -4 29 -8z"/>
<path d="M2008 3824 c-12 -4 -26 -44 -52 -152 -20 -81 -39 -157 -42 -170 -6
-22 -5 -23 42 -20 45 3 48 5 56 36 8 29 12 32 47 32 34 0 40 -4 50 -30 9 -28
13 -30 65 -30 38 0 56 4 56 13 0 6 -27 82 -59 167 l-59 155 -44 2 c-23 0 -50
-1 -60 -3z m61 -186 c1 -5 -6 -8 -14 -8 -15 0 -21 31 -8 44 7 6 20 -17 22 -36z"/>
<path d="M1800 3810 l-45 -5 0 -60 0 -60 -33 -3 c-31 -3 -32 -2 -32 35 0 21
-3 48 -6 61 -6 22 -10 23 -58 17 -28 -4 -53 -9 -55 -11 -2 -2 5 -78 14 -169
l18 -166 51 3 51 3 3 68 c3 66 3 67 32 67 27 0 29 -2 37 -62 5 -40 13 -63 21
-62 6 1 28 2 47 3 23 0 38 7 42 18 7 18 -26 322 -36 326 -3 2 -26 0 -51 -3z"/>
<path d="M3110 3798 c-58 -30 -90 -89 -90 -168 0 -189 248 -232 316 -53 35 91
0 187 -80 224 -54 25 -92 24 -146 -3z m105 -85 c14 -13 16 -28 11 -71 -8 -65
-21 -92 -44 -92 -30 0 -42 21 -42 73 0 48 13 85 34 99 16 11 23 10 41 -9z"/>
<path d="M3518 3604 c-16 -92 -26 -169 -25 -171 2 -2 21 -4 43 -6 l39 -2 16
80 c9 44 18 76 18 70 1 -5 6 -43 10 -84 9 -78 20 -93 61 -89 20 3 31 17 62 88
41 93 45 90 23 -15 -17 -82 -12 -92 50 -97 l40 -3 17 95 c9 52 22 123 29 157
6 35 9 69 6 77 -3 7 -27 17 -54 20 -26 4 -55 9 -64 12 -12 3 -25 -15 -49 -68
-19 -40 -35 -68 -36 -63 -1 6 -5 40 -9 77 -7 74 -7 74 -92 83 l-58 7 -27 -168z"/>
<path d="M1320 3751 c-29 -9 -29 -6 -5 -203 l18 -138 36 1 c20 0 74 6 121 12
l85 12 -3 40 c-2 22 -7 44 -11 48 -4 4 -33 4 -64 -1 -32 -5 -57 -9 -58 -8 0 1
-8 55 -18 121 l-17 120 -29 2 c-17 1 -41 -2 -55 -6z"/>
<path d="M1177 3730 c-21 -4 -42 -11 -46 -16 -5 -5 2 -72 15 -149 35 -206 27
-187 82 -179 26 3 50 9 54 13 4 4 -4 74 -18 156 -27 165 -32 186 -42 184 -4
-1 -24 -5 -45 -9z"/>
<path d="M930 3689 c-25 -6 -69 -15 -97 -20 -45 -9 -53 -14 -53 -33 0 -26 57
-306 63 -313 3 -2 26 0 53 4 54 10 55 12 39 101 -4 23 -4 42 1 42 5 0 26 -27
47 -61 28 -44 42 -59 55 -55 9 3 34 8 55 12 46 8 47 20 2 85 -40 58 -41 62
-21 78 23 19 29 65 12 104 -22 54 -75 73 -156 56z m45 -99 c10 -16 -14 -40
-40 -40 -21 0 -35 17 -35 41 0 13 67 11 75 -1z"/>
<path d="M4024 3647 c-73 -123 -144 -254 -144 -265 0 -13 6 -16 53 -26 23 -6
30 -2 45 24 15 26 21 29 47 24 40 -8 53 -20 57 -52 3 -22 10 -28 51 -38 29 -7
49 -8 53 -2 6 9 -11 214 -25 308 -6 44 -7 45 -59 56 l-54 12 -24 -41z m44
-152 c-2 -9 -8 -12 -17 -6 -11 7 -11 13 0 32 11 20 14 21 17 7 2 -10 2 -25 0
-33z"/>
<path d="M606 3614 c-49 -13 -92 -26 -94 -29 -3 -3 0 -22 6 -43 11 -35 14 -38
44 -34 l33 4 29 -122 28 -121 32 7 c17 3 41 10 52 15 l22 8 -28 118 c-29 127
-30 120 22 137 14 4 15 11 6 45 -13 49 -21 50 -152 15z"/>
<path d="M4237 3482 c-20 -83 -37 -157 -37 -166 0 -9 15 -19 38 -25 63 -18 68
-16 81 44 17 77 41 69 41 -14 0 -20 6 -44 13 -53 12 -15 105 -43 114 -34 2 2
0 30 -6 62 -15 79 -15 82 17 98 57 30 69 110 24 156 -28 28 -122 62 -208 76
l-40 6 -37 -150z m191 10 c3 -19 -1 -22 -32 -22 -31 0 -36 3 -36 23 0 32 6 36
38 28 17 -5 28 -15 30 -29z"/>
<path d="M2090 3348 c-17 -24 -25 -50 -30 -112 -6 -63 -7 -70 -9 -31 -1 28 -4
67 -7 88 -6 33 -10 37 -35 37 -21 0 -29 -5 -29 -17 0 -15 -1 -15 -13 1 -8 11
-23 17 -38 14 -24 -3 -24 -5 -21 -88 4 -124 9 -140 38 -140 14 0 27 7 30 15 6
14 8 14 18 1 15 -20 126 -11 126 10 0 8 5 14 10 14 6 0 10 -7 10 -15 0 -10 10
-15 30 -15 26 0 30 4 31 28 0 26 1 26 11 5 15 -31 70 -41 103 -19 23 15 25 23
25 91 0 59 3 75 15 75 11 0 15 -18 17 -82 l3 -83 33 -3 32 -3 0 84 c0 66 3 86
15 91 8 3 15 17 15 32 l0 26 -132 -5 c-73 -3 -134 -6 -135 -6 -2 -1 -3 -40 -4
-88 l-1 -88 -18 84 c-10 46 -23 87 -30 91 -9 5 -9 9 -1 14 19 12 12 26 -12 26
-14 0 -32 -12 -47 -32z"/>
<path d="M2480 3235 l0 -115 30 0 30 0 0 115 0 115 -30 0 -30 0 0 -115z"/>
<path d="M2572 3333 c-28 -52 -25 -169 5 -198 8 -8 32 -15 53 -15 31 0 43 5
56 25 l17 26 11 -22 c15 -30 61 -45 92 -30 32 14 44 49 44 127 0 73 -20 104
-68 104 -47 0 -71 -24 -74 -78 -3 -46 -3 -47 -40 -50 -31 -3 -37 -7 -41 -30
-2 -15 -4 2 -5 38 0 41 3 56 7 40 5 -19 14 -26 39 -28 31 -3 32 -2 32 36 0 50
-23 72 -78 72 -29 0 -44 -5 -50 -17z m205 -135 c-2 -18 -4 -6 -4 27 0 33 2 48
4 33 2 -15 2 -42 0 -60z"/>
<path d="M2924 3342 c-7 -4 -13 -51 -16 -110 -4 -91 -3 -104 13 -112 29 -16
86 -12 93 6 10 25 7 32 -14 39 -23 7 -27 45 -5 45 8 0 15 9 15 20 0 11 -7 23
-15 26 -21 8 -19 21 5 27 14 3 20 14 20 31 0 22 -4 26 -29 26 -16 0 -35 2 -43
5 -7 3 -18 1 -24 -3z"/>
<path d="M3085 3330 c-10 -17 -23 -204 -14 -214 4 -4 28 -11 53 -13 46 -6 46
-6 46 26 0 21 -5 31 -15 31 -8 0 -15 9 -15 20 0 11 7 20 15 20 9 0 15 9 15 25
0 16 -6 25 -15 25 -8 0 -15 5 -15 10 0 6 9 10 20 10 16 0 20 7 20 30 0 24 -4
30 -22 30 -13 0 -33 3 -44 6 -12 3 -25 1 -29 -6z"/>
<path d="M3220 3312 c-39 -32 -53 -169 -20 -202 38 -38 119 -17 120 31 1 8 7
-1 15 -19 16 -36 54 -55 91 -46 34 9 43 31 51 119 5 64 3 78 -12 95 -31 35
-104 22 -118 -20 -3 -11 -8 -7 -16 13 -10 25 -45 47 -76 47 -7 0 -23 -8 -35
-18z m197 -74 c-3 -8 -6 -5 -6 6 -1 11 2 17 5 13 3 -3 4 -12 1 -19z m-79 -35
c-3 -14 -11 -17 -40 -15 -33 3 -37 1 -41 -25 -3 -18 -4 -14 -3 12 1 40 1 40
39 37 30 -3 37 0 38 15 0 10 3 13 6 6 2 -7 3 -21 1 -30z"/>
<path d="M1725 3295 c-14 -13 -26 -37 -26 -52 -1 -21 -3 -18 -8 12 -6 38 -8
40 -44 43 -31 3 -39 -1 -45 -19 -7 -19 -10 -20 -15 -6 -4 12 -18 17 -42 17
l-35 0 1 -62 c0 -35 4 -85 7 -113 8 -56 -4 -51 117 -45 63 3 75 9 75 37 l0 26
21 -27 c24 -30 63 -34 97 -10 18 13 22 25 22 72 0 31 -5 74 -10 94 -17 61 -72
77 -115 33z m52 -82 c-3 -10 -5 -2 -5 17 0 19 2 27 5 18 2 -10 2 -26 0 -35z
m-70 -55 c-2 -13 -4 -5 -4 17 -1 22 1 32 4 23 2 -10 2 -28 0 -40z"/>
<path d="M3653 3296 c-11 -13 -27 -26 -34 -28 -7 -2 -17 -35 -24 -74 -8 -53
-15 -70 -29 -72 -13 -3 -17 1 -13 15 3 10 8 48 12 85 6 66 6 67 -20 74 -14 3
-29 3 -32 0 -7 -6 -31 -160 -32 -202 -1 -18 7 -23 45 -29 33 -5 49 -3 54 6 6
9 12 8 25 -4 17 -17 71 -23 92 -9 7 4 16 19 22 32 l10 25 0 -26 c1 -35 27 -55
83 -62 l46 -6 11 50 c15 69 14 79 -8 79 -31 0 -51 11 -51 29 1 14 2 14 11 -1
6 -11 22 -18 39 -18 27 0 30 3 30 30 0 40 -31 70 -74 70 -42 0 -58 -18 -73
-84 l-12 -51 5 55 c5 46 2 60 -15 82 -13 16 -17 29 -11 33 18 11 11 25 -13 25
-13 0 -33 -11 -44 -24z m154 -208 c-3 -7 -5 -2 -5 12 0 14 2 19 5 13 2 -7 2
-19 0 -25z"/>
<path d="M1382 3264 c-32 -22 -30 -77 3 -108 l25 -24 -24 -4 c-23 -5 -25 -1
-31 46 -10 76 -14 86 -38 86 -45 0 -48 -10 -32 -94 8 -43 15 -85 14 -94 -1
-24 -20 44 -26 95 -7 60 -29 76 -92 67 -38 -5 -51 -11 -51 -23 0 -29 32 -196
40 -204 3 -4 20 -2 36 4 16 7 41 11 56 10 14 -1 29 2 32 7 3 5 17 7 31 4 34
-6 53 12 48 46 l-4 27 13 -25 c32 -60 120 -45 126 21 3 39 -27 88 -56 90 -10
0 -5 5 11 11 31 11 35 37 9 61 -23 21 -61 22 -90 1z m-155 -206 c-3 -8 -6 -5
-6 6 -1 11 2 17 5 13 3 -3 4 -12 1 -19z"/>
<path d="M3905 3203 c-4 -21 -12 -68 -19 -105 -14 -73 -9 -88 31 -88 15 0 24
7 27 23 3 12 7 31 9 42 3 11 5 4 6 -16 1 -47 26 -69 80 -69 38 0 43 3 56 33
l14 32 1 -31 c0 -60 69 -92 113 -52 26 23 57 133 49 171 -4 18 -50 47 -77 47
-27 0 -62 -45 -70 -89 -5 -31 -10 -40 -18 -32 -12 12 -63 15 -70 4 -2 -5 -2
-2 0 5 1 8 3 23 3 35 0 20 1 20 13 3 8 -11 23 -17 38 -14 20 2 25 9 27 41 4
45 -9 63 -48 72 -43 9 -70 -3 -86 -38 l-15 -32 7 43 c4 31 2 42 -8 42 -7 0
-23 3 -35 6 -19 5 -23 1 -28 -33z m62 -95 c-3 -7 -5 -2 -5 12 0 14 2 19 5 13
2 -7 2 -19 0 -25z"/>
<path d="M1078 3214 c-3 -3 -46 -12 -94 -21 -49 -8 -101 -17 -116 -20 -22 -4
-28 -11 -28 -30 0 -16 7 -27 20 -30 19 -5 25 -19 47 -118 8 -35 12 -40 33 -37
42 6 45 17 25 97 -13 52 -16 78 -9 83 6 4 13 13 16 21 2 8 12 -23 21 -70 10
-53 23 -88 34 -96 23 -18 64 -16 92 3 22 16 23 22 17 75 -12 115 -33 168 -58
143z"/>
<path d="M2430 2981 c-212 -29 -497 -208 -765 -480 -64 -66 -68 -72 -53 -87
15 -15 24 -10 115 78 188 179 395 314 583 378 91 32 245 38 342 15 187 -45
431 -196 643 -398 73 -69 93 -83 108 -76 9 6 17 14 17 19 0 11 -237 231 -320
296 -93 74 -182 129 -285 178 -143 68 -266 93 -385 77z"/>
<path d="M2395 2768 c-3 -13 -6 -61 -7 -108 l-3 -85 -110 -62 c-220 -125 -448
-211 -622 -234 -48 -6 -145 -9 -214 -7 l-127 5 -6 -55 c-4 -30 -4 -57 -1 -60
11 -12 108 -21 226 -21 249 -2 573 81 794 203 l61 33 -4 -666 c-3 -366 -7
-674 -11 -684 -5 -14 -18 -4 -64 52 -90 108 -236 244 -306 285 -35 20 -118 60
-185 88 -164 68 -210 92 -258 136 -48 43 -80 91 -98 147 -17 53 -21 59 -30 45
-4 -6 -3 -32 1 -57 23 -119 120 -206 340 -302 193 -85 310 -169 420 -301 106
-128 261 -300 270 -300 11 0 11 3 0 32 -5 13 -5 228 -1 498 5 261 11 692 15
958 l6 482 -40 0 c-34 0 -41 -4 -46 -22z"/>
<path d="M2518 2783 c-2 -5 0 -188 4 -408 4 -220 9 -660 10 -977 2 -318 6
-578 9 -578 6 0 163 178 266 301 100 121 202 194 408 294 189 92 261 141 311
210 34 48 52 120 39 152 -5 14 -12 5 -25 -36 -42 -127 -111 -183 -340 -281
-91 -39 -194 -91 -230 -115 -63 -42 -237 -212 -313 -305 l-37 -45 0 515 c0
283 -3 595 -7 692 l-6 177 66 -35 c138 -73 320 -137 497 -176 107 -23 369 -35
460 -21 l55 8 0 60 0 60 -145 -3 c-170 -4 -273 12 -430 64 -105 35 -362 156
-452 214 -43 27 -48 34 -48 68 0 20 -3 67 -7 105 l-6 67 -38 0 c-21 0 -39 -3
-41 -7z"/>
<path d="M2735 2230 c-21 -41 -20 -45 28 -65 23 -10 49 -28 58 -39 12 -13 31
-20 64 -22 27 -2 55 -6 64 -10 18 -8 17 -8 86 -24 28 -7 66 -16 85 -21 38 -9
52 1 48 36 -2 13 -14 21 -38 26 -18 4 -40 15 -47 25 -9 13 -16 15 -24 7 -14
-14 -59 -4 -59 13 0 8 -9 14 -20 14 -11 0 -20 -5 -20 -11 0 -6 -14 -1 -31 11
-20 15 -40 21 -59 18 -18 -3 -31 1 -34 9 -7 16 -43 17 -48 1 -2 -6 -10 -8 -16
-4 -9 5 -9 13 -2 27 11 20 6 39 -10 39 -5 0 -16 -13 -25 -30z"/>
<path d="M2130 2210 c-8 -15 -21 -20 -54 -20 -49 0 -76 -21 -57 -43 6 -8 9
-16 6 -19 -3 -3 1 -11 9 -17 12 -10 20 -10 38 1 13 7 28 13 33 13 22 1 75 31
75 42 0 18 -22 63 -31 63 -5 0 -13 -9 -19 -20z"/>
<path d="M1893 2135 c-15 -17 -17 -61 -3 -70 13 -8 91 15 110 32 11 10 12 18
4 31 -14 22 -93 27 -111 7z"/>
<path d="M1436 2105 c-9 -25 -7 -63 4 -70 6 -3 23 3 38 14 l28 20 0 -22 c-1
-21 2 -22 99 -20 145 3 243 22 251 47 9 27 -22 49 -48 35 -10 -5 -22 -8 -26
-6 -4 3 -32 1 -62 -3 -36 -5 -57 -4 -62 3 -5 8 -14 8 -30 0 -44 -21 -64 -21
-78 0 -12 20 -13 20 -27 1 -10 -13 -16 -15 -21 -7 -4 6 -19 14 -33 18 -19 5
-28 2 -33 -10z"/>
<path d="M3230 2110 c0 -5 -6 -10 -14 -10 -20 0 -30 -38 -16 -55 8 -9 29 -13
63 -12 46 2 52 5 55 26 4 27 -15 43 -40 35 -12 -3 -18 0 -18 10 0 9 -7 16 -15
16 -8 0 -15 -4 -15 -10z"/>
<path d="M3355 2097 c-3 -7 -7 -27 -8 -43 l-2 -29 80 -2 c44 0 85 3 92 8 7 6
13 6 17 0 7 -10 66 -8 85 3 29 19 -3 71 -37 59 -7 -3 -19 1 -27 7 -12 10 -18
10 -30 0 -8 -7 -36 -13 -61 -14 -31 -1 -50 -7 -58 -19 -18 -24 -26 -21 -26 7
0 28 -17 44 -25 23z"/>
</g>
</svg>
